<?xml version="1.0" encoding="utf-8"?>
<!-- Generator: Adobe Illustrator 23.0.2, SVG Export Plug-In . SVG Version: 6.00 Build 0)  -->
<svg version="1.1" id="Layer_1" xmlns="http://www.w3.org/2000/svg" xmlns:xlink="http://www.w3.org/1999/xlink" x="0px" y="0px"
	 viewBox="0 0 351.4 146.72" style="enable-background:new 0 0 351.4 146.72;" xml:space="preserve">
<style type="text/css">
	.st0{fill:none;stroke:#3EB45B;stroke-width:0.4;stroke-miterlimit:10;}
	.st1{clip-path:url(#SVGID_2_);fill:#5CA244;}
	.st2{clip-path:url(#SVGID_5_);fill:url(#SVGID_6_);}
	.st3{opacity:0.3;clip-path:url(#SVGID_8_);}
	.st4{clip-path:url(#SVGID_10_);fill:#242E64;}
	.st5{clip-path:url(#SVGID_12_);fill:#242E64;}
	.st6{clip-path:url(#SVGID_14_);fill:#242E64;}
	.st7{clip-path:url(#SVGID_16_);fill:#242E64;}
	.st8{clip-path:url(#SVGID_18_);fill:#242E64;}
	.st9{clip-path:url(#SVGID_20_);fill:#242E64;}
	.st10{clip-path:url(#SVGID_8_);fill:#221F1F;}
	.st11{clip-path:url(#SVGID_8_);fill:#222919;}
	.st12{clip-path:url(#SVGID_8_);fill:#5CA244;}
	.st13{fill:#5CA244;}
	.st14{fill:#FFFFFF;}
</style>
<g>
	<circle class="st0" cx="73.45" cy="74.46" r="64.98"/>
	<g>
		<defs>
			
				<rect id="SVGID_1_" x="-131.17" y="-382.55" transform="matrix(1 -1.965767e-03 1.965767e-03 1 -0.121 0.3598)" width="628.3" height="888.59"/>
		</defs>
		<clipPath id="SVGID_2_">
			<use xlink:href="#SVGID_1_"  style="overflow:visible;"/>
		</clipPath>
		<path class="st1" d="M326.65,105.54l-31.68,0.06c-2.83,0.01-5.44-1.54-6.79-4.03l-7.84-14.39c-0.07-0.13-0.2-0.2-0.34-0.2
			l-8.09,0.02c-1.17,0-2.11-0.94-2.12-2.11c0-1.17,0.94-2.11,2.11-2.12l8.09-0.02c1.69,0,3.25,0.92,4.06,2.41l7.84,14.39
			c0.61,1.13,1.79,1.83,3.08,1.82l31.68-0.06c0.63,0,1.14-0.51,1.14-1.14l0.49-10.78c0.02-0.42-0.19-0.69-0.31-0.82
			c-0.12-0.13-0.39-0.35-0.81-0.34l-36.99,0.07c-1.17,0-2.11-0.94-2.12-2.11c0-1.17,0.94-2.11,2.11-2.12l36.99-0.07
			c1.45,0,2.86,0.6,3.87,1.65c1.01,1.05,1.54,2.48,1.48,3.94L332,100.26C332.01,103.12,329.61,105.53,326.65,105.54z"/>
	</g>
	<g>
		<defs>
			<path id="SVGID_3_" d="M10.72,77.25c1.54,34.65,30.88,61.49,65.53,59.95s61.49-30.88,59.95-65.53
				c-1.54-34.65-30.88-61.49-65.53-59.95S9.18,42.6,10.72,77.25"/>
		</defs>
		
			<linearGradient id="SVGID_4_" gradientUnits="userSpaceOnUse" x1="109.7371" y1="19.0549" x2="46.9259" y2="127.8471" gradientTransform="matrix(0.9991 -0.0424 0.0424 0.9991 -7.9235 4.4014)">
			<stop  offset="0" style="stop-color:#CFD029"/>
			<stop  offset="1" style="stop-color:#3EB44A"/>
		</linearGradient>
		<use xlink:href="#SVGID_3_"  style="overflow:visible;fill:url(#SVGID_4_);"/>
		<clipPath id="SVGID_5_">
			<use xlink:href="#SVGID_3_"  style="overflow:visible;"/>
		</clipPath>
		
			<linearGradient id="SVGID_6_" gradientUnits="userSpaceOnUse" x1="121.2476" y1="-0.8822" x2="35.4152" y2="147.7839" gradientTransform="matrix(0.9991 -0.0424 0.0424 0.9991 -7.9235 4.4014)">
			<stop  offset="0" style="stop-color:#CFD029"/>
			<stop  offset="1" style="stop-color:#3EB44A"/>
		</linearGradient>
		<polygon class="st2" points="7.93,14.51 133.4,8.94 138.98,134.41 13.5,139.99 		"/>
	</g>
	<g>
		<defs>
			
				<rect id="SVGID_7_" x="-131.17" y="-382.55" transform="matrix(1 -1.965767e-03 1.965767e-03 1 -0.121 0.3598)" width="628.3" height="888.59"/>
		</defs>
		<clipPath id="SVGID_8_">
			<use xlink:href="#SVGID_7_"  style="overflow:visible;"/>
		</clipPath>
		<g class="st3">
			<g>
				<defs>
					
						<rect id="SVGID_9_" x="81.88" y="26.43" transform="matrix(1 -1.965767e-03 1.965767e-03 1 -0.0518 0.1611)" width="0.15" height="0.04"/>
				</defs>
				<clipPath id="SVGID_10_">
					<use xlink:href="#SVGID_9_"  style="overflow:visible;"/>
				</clipPath>
				<path class="st4" d="M81.88,26.45c0.05-0.01,0.1-0.01,0.15-0.02c-0.01,0.01-0.01,0.03-0.02,0.04
					C81.96,26.46,81.92,26.45,81.88,26.45"/>
			</g>
		</g>
		<g class="st3">
			<g>
				<defs>
					
						<rect id="SVGID_11_" x="97.52" y="25.79" transform="matrix(1 -1.965767e-03 1.965767e-03 1 -0.0507 0.1933)" width="1.61" height="0.14"/>
				</defs>
				<clipPath id="SVGID_12_">
					<use xlink:href="#SVGID_11_"  style="overflow:visible;"/>
				</clipPath>
				<path class="st5" d="M97.52,25.8c0.54,0.04,1.08,0.08,1.61,0.13C98.6,25.88,98.06,25.83,97.52,25.8"/>
			</g>
		</g>
		<g class="st3">
			<g>
				<defs>
					
						<rect id="SVGID_13_" x="105.54" y="26.91" transform="matrix(1 -1.965767e-03 1.965767e-03 1 -0.0533 0.2101)" width="2.59" height="0.64"/>
				</defs>
				<clipPath id="SVGID_14_">
					<use xlink:href="#SVGID_13_"  style="overflow:visible;"/>
				</clipPath>
				<path class="st6" d="M105.54,26.92c0.88,0.19,1.74,0.4,2.59,0.63C107.28,27.31,106.42,27.11,105.54,26.92"/>
			</g>
		</g>
		<g class="st3">
			<g>
				<defs>
					
						<rect id="SVGID_15_" x="118.63" y="55.28" transform="matrix(1 -1.965767e-03 1.965767e-03 1 -0.1087 0.2334)" width="0.04" height="0.21"/>
				</defs>
				<clipPath id="SVGID_16_">
					<use xlink:href="#SVGID_15_"  style="overflow:visible;"/>
				</clipPath>
				<path class="st7" d="M118.68,55.5c-0.01-0.07-0.03-0.14-0.04-0.21C118.65,55.35,118.66,55.42,118.68,55.5L118.68,55.5z"/>
			</g>
		</g>
		<g class="st3">
			<g>
				<defs>
					
						<rect id="SVGID_17_" x="115.87" y="30.47" transform="matrix(1 -1.965767e-03 1.965767e-03 1 -0.0602 0.2289)" width="1.09" height="0.57"/>
				</defs>
				<clipPath id="SVGID_18_">
					<use xlink:href="#SVGID_17_"  style="overflow:visible;"/>
				</clipPath>
				<path class="st8" d="M115.87,30.47c0.37,0.18,0.73,0.37,1.09,0.56C116.6,30.84,116.24,30.65,115.87,30.47"/>
			</g>
		</g>
		<g class="st3">
			<g>
				<defs>
					
						<rect id="SVGID_19_" x="128.9" y="41.9" transform="matrix(1 -1.965767e-03 1.965767e-03 1 -0.0822 0.2535)" width="0.06" height="0.09"/>
				</defs>
				<clipPath id="SVGID_20_">
					<use xlink:href="#SVGID_19_"  style="overflow:visible;"/>
				</clipPath>
				<path class="st9" d="M128.95,41.98L128.95,41.98c-0.02-0.03-0.04-0.06-0.06-0.09C128.91,41.92,128.93,41.95,128.95,41.98"/>
			</g>
		</g>
		<path class="st10" d="M39.09,110.31c0,0,28.46-6.74,71.88-2.78L39.09,110.31z"/>
		<path class="st10" d="M109.44,72.39c4.35-0.15,4.35-1.46,4.35-1.46l-5.23-0.43c0.27-10.38-7.22-19.58-7.22-19.58
			c-2.11-3.84-6.88-2.56-6.88-2.56c-10.88,2.6-10.68,4.85-10.68,4.85c3.94,3.08,4.29,6.52,4.29,6.52l-0.94,0.36
			c-1.24-4.28-4.08-6.67-4.08-6.67c-13.3-2.82-18.44-1.34-18.44-1.34c-13.49,2.2-19.13,11.79-19.13,11.79
			c-2.02,5.23-8.04,9.81-8.04,9.81c-3.26,3.05-8.99,1.61-8.99,1.61l0,0.29l0.58,0.36c2.54,0.94,7.62-0.01,7.62-0.01
			c2.03-0.58,6.24-0.59,6.24-0.59c-0.56,9.07,3.14,12.47,3.14,12.47c7.71,7.02,16.41,4.39,16.41,4.39s10.96-1.11,14.49-11.93
			c3.53-10.82-6.77-11.81-6.77-11.81c6.31-4.29,0.49-7.77,0.49-7.77c11.47,0.41,9.62,19.07,9.62,19.07l1.37-3.99
			c0.64-7.77,1.65-8.35,1.65-8.35c9.26-12.86,17.56-1.34,17.56-1.34c5.1,10.73-1.79,12.34-1.79,12.34c-6.09,2.12-6.1-1.22-6.1-1.22
			c1.15-4.65,6.75-0.3,6.75-0.3c0.73-0.29,1.67-1.45,1.67-1.45c2.31-4.14-3.57-5.29-3.57-5.29c-9.36-0.42-8.48,7.06-8.48,7.06
			s1.31,4.5,8.35,3.83c7.04-0.67,10.51-6.19,10.51-6.19c3.48,1.44,7.33-0.38,7.33-0.38C111.19,74.49,109.44,72.39,109.44,72.39
			 M71.06,78.27c1.17,4.57-6.66,8.5-6.66,8.5c-11.01,3.05-15.47-4.47-15.47-4.47c-3.79-10.01,6.93-17.14,6.93-17.14
			s8.91-5.82,9.51-0.45c0.59,5.37-9.48,11.34-9.48,11.34C70.97,70.65,71.06,78.27,71.06,78.27"/>
		<path class="st10" d="M27.95,75.03c0,0,1.4,0.43,1.89-0.17c0.49-0.6-0.56-1.27-1.05-1.2c-1.91-0.44-3.7,1.37-5.62,0
			c0,0,1.73,3.42,4.18,4.3c2.45,0.88,2.46-1.27,2.46-1.27S27.92,76.41,27.95,75.03"/>
		<path class="st10" d="M101.4,81l-0.54,9.22c0,0,0.77,4.19,4.58,4.56c0,0,2.72-0.28,1.96,1.58l0.54,0l0-0.56
			c0,0,1.22-0.44,1.18,0.76l0,0.38l0.36,0l0.37,0c0,0,1.51-3.79-2.36-4.67c0,0-3.99-0.8-2.89-5.07c0,0,0.47-2.01,1.64-5.34
			l1.21-4.41C107.45,77.45,105.14,80.06,101.4,81"/>
		<path class="st10" d="M92.7,83.01c0,0,0.67,3.9,1.54,5.95c1.08,2.54,4.36,5.65,4.36,5.65s1.31,3.84-2.93,4.14
			c-4.25,0.3-5.48,0.01-5.48,0.01s-1.83,0.4-1.31-3.55c0,0-0.22-1.6-1.31-3.7c0,0-2.26-3.59-5.03-13.44c0,0,0.37,4.13,1.03,6.39
			c0,0,1.52,5.15,3.35,7.62c0,0,1.38,1.85,0.96,6.8c0,0,0.13,1.2,2.07,1.21c1.94,0.01,6.04-0.01,6.04-0.01s3.88-0.59,4.4-3.15
			c0,0-0.02-1.23-0.97-2.56c0,0-3.78-2.9-4.02-7.18c0,0-0.78-2.28-1.59-3.44l-0.62-1.02L92.7,83.01z"/>
		<path class="st10" d="M72.39,88.53c0,0,7.91-0.12,10.15-3.72l1.12,0c0,0-0.72,2.23-4.09,3.71C76.2,90,72.39,88.53,72.39,88.53"/>
		<path class="st10" d="M49.18,90.16c0,0-1.71,2.94-2.42,4.03c0,0-0.81,2.72,3.93,6c0,0,4.74,1.6,7.73-0.26c0,0-0.39-3.37-0.01-5.01
			l-0.93-0.11c0,0-0.87,1.91-1.52,1.74L52,96.63c0,0,0.82,1.41,4.46,0.64l0.76-0.24c0,0,0.82,2.74-0.43,2.52c0,0-4.57,0.66-6.37-1.4
			c0,0-5.15-1.72-0.41-7.53L49.18,90.16z"/>
		<path class="st10" d="M63.52,92.04c0,0-3.09,3.74-3.09,5.84c0,2.1,1.09,2.29,1.09,2.29s5.52,2.12,10.52-0.43
			c0,0,1.45-0.98-0.37-2.74l-0.46-0.5c0,0-0.61,1.8-4.7,1.18c0,0,3.69-0.61,4.18-1.56c0,0-0.34-2.2,0.52-3.45
			c0,0,1.4-2.26,3.14-2.79l0.22,0.35c0,0-3.45,2.35-2.66,5.04c0,0,1.09,2.72,1.78,3.21c0,0,0.41,2.8-3.1,3.19
			c0,0-5.5,0.77-7.86,0.26c0,0-4.07-0.73-3.04-4.43c1.03-3.7,2.76-5.29,2.76-5.29L63.52,92.04z"/>
		<path class="st10" d="M80.23,88.7c0,0-4.54,5.72-3.47,7.29c1.03,1.51,4.18,2.88,7.07,2.49c0.45-0.06,0.81-0.39,0.94-0.82
			c0.12-0.42,0.18-1.03-0.05-1.84c0,0-0.35-0.51-1.23,0.08c-0.89,0.58-3.17,0.15-3.81-0.14l-0.34-0.36c0,0,3.01,0.36,3.94-0.32
			c0,0,1.68-0.87,2.37-3.85l0.11-1.09l0.29,0.55l-0.07,2.21c0,0-0.85,2.02,0.01,3.34c0,0,0.95,2.92-2.01,3.11
			c0,0-2.07,0.46-5.55-1.1c-3.49-1.55-2.4-4.18-2.4-4.18s0.9-2.58,3.35-5.25L80.23,88.7z"/>
		<path class="st10" d="M97.66,93.67c0,0-1.71,1.77-4.79,1.75c0,0,2.9,1.13,5.31-1.22L97.66,93.67z"/>
		<path class="st11" d="M112.68,80.02c0,0,0.05-5.87,1.54-6.31c0,0,1.66-0.13,1.44,2.86c-0.05,0.72,0.16,1.5,0.54,2.29
			c0.17,0.35,0.5,0.86,0.83,1.13l1.01-0.25l-0.38-0.46c0,0-1.18-0.49-1.34-3.81c-0.02-0.42-0.07-1-0.24-1.29
			c-0.36-0.64-1.14-1.57-2.46-1.19c0,0-1.9,0.4-2.54,6.36l0,0.89L112.68,80.02z"/>
		<path class="st12" d="M115.56,84.57c0,0-3.59-4.11-4.19-0.57c0,0-0.14,2.18,3.62,6.53c0,0,0.38,1.03-1.07-0.05
			c0,0-6.28-3.27-5.45-11.66c0,0,0.71-1.13,2.78,0.91c0.14,0.01,1.43,0.25,2.8,0.34c1.16,0.07,2.79,0.01,2.95,0.02
			c0.39-0.44,0.92-0.9,1.52-1.42c0.81-0.7,1.72-1.37,2.12-1.29c0,0,3.46,0.23,1.52,8.58c0,0-0.72,3.92-2.31,5.52
			c0,0-0.61,0,0.14-4.28c0,0,1.31-5.56-0.84-5.56c0,0-1.5,0.28-2.78,3.11C116.37,84.72,115.78,85.13,115.56,84.57"/>
		<path class="st10" d="M113.75,86.12c0.75,0.14,1.37,0.22,2,0.2c0.31-0.01,0.63-0.02,0.96-0.07l1.06-0.14
			c-0.23,0.3-0.52,0.57-0.87,0.73c-0.34,0.19-0.74,0.25-1.13,0.27C114.98,87.12,114.16,86.79,113.75,86.12"/>
		<path class="st10" d="M113.75,87.36c0.75,0.14,1.37,0.22,2,0.21c0.31-0.01,0.63-0.02,0.96-0.07l1.06-0.14
			c-0.23,0.31-0.52,0.57-0.87,0.73c-0.34,0.19-0.74,0.25-1.13,0.27C114.98,88.36,114.16,88.03,113.75,87.36"/>
	</g>
	<g>
		<path d="M290.3,121.27c-0.38-0.36-0.57-0.77-0.57-1.28c0-0.51,0.21-0.98,0.6-1.38c0.38-0.3,0.79-0.45,1.23-0.45
			c0.47,0,0.91,0.17,1.29,0.51c0.36,0.38,0.55,0.81,0.55,1.32c0,0.53-0.21,0.98-0.62,1.38c-0.36,0.3-0.78,0.45-1.21,0.45
			C291.1,121.81,290.66,121.63,290.3,121.27z"/>
		<path d="M298.17,120.9c-0.59-0.3-1.14-0.68-1.63-1.15c-1.37-1.35-2.05-2.9-2.06-4.62c0-1.04,0.19-2,0.54-2.85
			c0.62-1.45,1.72-2.53,3.27-3.19c0.97-0.4,1.99-0.61,3.03-0.61c1.33,0,2.45,0.3,3.36,0.92c0.78,0.54,1.18,1.24,1.18,2.13
			c0,0.6-0.21,1.11-0.6,1.51c-0.42,0.42-0.91,0.62-1.48,0.63c-0.55,0-1.01-0.21-1.4-0.6c-0.4-0.4-0.61-0.87-0.61-1.39
			c0-0.38,0.13-0.77,0.42-1.17c0.23-0.32,0.45-0.51,0.7-0.61c-2.48,0.31-3.71,1.57-3.71,3.78l0,1.24c0,1.42,0.14,2.47,0.39,3.19
			c0.53,1.45,1.63,2.17,3.3,2.16c0.97,0,1.89-0.36,2.78-1.08c0.62-0.55,1.15-1.21,1.55-1.98c0.55,0,0.82,0,0.82,0.02
			c-0.74,1.87-2.06,3.19-3.93,3.97c-0.85,0.32-1.7,0.49-2.6,0.5C300.33,121.68,299.23,121.42,298.17,120.9z"/>
		<path d="M308.85,120.01c-1.5-1.36-2.24-2.99-2.25-4.94c0-1.26,0.34-2.45,1.04-3.57c0.64-1.02,1.53-1.81,2.65-2.38
			c0.89-0.44,1.86-0.66,2.92-0.67c0.82,0,1.61,0.15,2.41,0.43c1.35,0.54,2.43,1.43,3.21,2.65c0.67,1.09,1.01,2.26,1.01,3.51
			c0,1.25-0.34,2.41-1,3.51c-0.81,1.25-1.89,2.14-3.25,2.67c-0.76,0.28-1.55,0.44-2.37,0.44
			C311.61,121.66,310.16,121.12,308.85,120.01z M314.46,119.07c0.47-1,0.72-2.34,0.71-4.02c0-1.36-0.18-2.56-0.54-3.62
			c-0.4-1.09-0.88-1.64-1.43-1.64c-0.68,0-1.23,0.78-1.62,2.34c-0.21,0.91-0.32,1.89-0.32,2.92c0,1.26,0.16,2.41,0.48,3.43
			c0.4,1.17,0.89,1.75,1.48,1.75C313.69,120.24,314.1,119.85,314.46,119.07z"/>
		<path d="M337.59,121.61c-0.53,0-1.02-0.19-1.48-0.54c-0.42-0.39-0.68-0.83-0.78-1.3c-0.02-0.17-0.04-2.68-0.05-7.54
			c0-1.24-0.36-1.87-1.07-1.86c-0.51,0-1,0.44-1.51,1.3c0.02,0.13,0.03,3.45,0.04,9.96l-2.35,0c-0.55,0-1.04-0.19-1.5-0.56
			c-0.53-0.51-0.8-1.07-0.8-1.73l-0.01-7.2c0-1.17-0.36-1.75-1.06-1.75c-0.51,0-1,0.42-1.48,1.25l0.02,10.01l-4.66,0.01l-0.03-13.2
			l2.37,0c0.45,0,0.89,0.15,1.33,0.43c0.3,0.21,0.53,0.47,0.67,0.75c0.13,0.25,0.23,0.45,0.25,0.62c0.36-0.47,0.76-0.85,1.17-1.1
			c0.7-0.47,1.48-0.72,2.31-0.72c0.99,0,1.86,0.34,2.6,0.99c0.36,0.36,0.63,0.7,0.8,1.05c0.02,0.06,0.04,0.09,0.06,0.11
			c1-1.45,2.25-2.17,3.75-2.18c0.97,0,1.84,0.32,2.58,0.98c0.78,0.75,1.18,1.66,1.18,2.71l0.02,9.51L337.59,121.61z"/>
	</g>
	<g>
		<path d="M151.74,66.13c-2.63-2.54-3.92-5.67-3.92-9.32c0-1.91,0.63-3.77,1.85-5.68c2.5-3.66,6.46-5.98,11.76-6.98
			c3.73-0.93,5.88-2.62,6.52-5c0.12-0.41,0.17-1.16,0.17-2.2c0-1.62-0.47-2.9-1.41-3.76c-0.99-0.87-2.33-1.33-4.14-1.32
			c-1.22,0-2.56,0.24-4.02,0.64c1.11,0.52,1.98,1.39,2.63,2.6c0.53,0.87,0.82,1.74,0.82,2.72c0,1.56-0.58,3.01-1.68,4.29
			c-1.4,1.45-2.97,2.15-4.77,2.15c-1.46,0-2.8-0.46-3.96-1.44c-1.46-1.27-2.16-2.89-2.17-4.86c0-1.56,0.46-3.07,1.45-4.58
			c1.34-1.91,3.26-3.31,5.76-4.18c1.98-0.76,4.83-1.17,8.56-1.18c6.88-0.01,11.66,1.71,14.29,5.25c1.99,2.49,2.98,5.96,2.99,10.31
			l0.05,24.98l-7.17,0.01c-1.81,0-3.38-0.63-4.84-1.96c-0.88-0.87-1.46-1.74-1.81-2.6c-3.2,3.19-6.52,4.76-10.01,4.77
			C156.11,68.79,153.78,67.92,151.74,66.13z M165.77,62.74c1.57-2.32,2.38-5.05,2.37-8.18l-0.02-10.66
			c-0.52,1.16-1.86,2.44-4.07,3.89c-0.76,0.52-1.45,1.05-2.04,1.57c-1.74,1.63-2.61,3.89-2.61,6.84l0.01,3.71
			c0,1.68,0.36,3.07,1.06,4.17c0.53,0.75,1.11,1.1,1.87,1.1C163.45,65.18,164.55,64.37,165.77,62.74z"/>
		<path d="M189.09,66.06c-2.63-2.54-3.92-5.67-3.92-9.32c0-1.91,0.63-3.77,1.85-5.68c2.5-3.66,6.46-5.98,11.76-6.98
			c3.73-0.93,5.88-2.62,6.52-5c0.12-0.41,0.17-1.16,0.17-2.2c0-1.62-0.47-2.9-1.41-3.76c-0.99-0.87-2.33-1.33-4.14-1.32
			c-1.22,0-2.56,0.24-4.02,0.64c1.11,0.52,1.98,1.39,2.63,2.6c0.53,0.87,0.82,1.74,0.82,2.72c0,1.56-0.58,3.01-1.68,4.29
			c-1.39,1.45-2.97,2.15-4.77,2.15c-1.46,0-2.8-0.46-3.97-1.44c-1.46-1.27-2.16-2.89-2.17-4.86c0-1.56,0.46-3.07,1.45-4.58
			c1.34-1.91,3.26-3.31,5.76-4.18c1.98-0.76,4.83-1.17,8.56-1.18c6.88-0.01,11.66,1.71,14.29,5.25c1.99,2.49,2.98,5.96,2.99,10.31
			l0.05,24.98l-7.17,0.01c-1.81,0-3.38-0.63-4.84-1.96c-0.88-0.87-1.46-1.74-1.81-2.6c-3.2,3.19-6.52,4.76-10.01,4.77
			C193.47,68.71,191.13,67.85,189.09,66.06z M203.13,62.67c1.57-2.32,2.38-5.05,2.37-8.18l-0.02-10.66
			c-0.52,1.16-1.86,2.44-4.07,3.89c-0.76,0.52-1.45,1.05-2.04,1.57c-1.74,1.63-2.61,3.89-2.61,6.84l0.01,3.71
			c0,1.68,0.36,3.07,1.06,4.17c0.53,0.75,1.11,1.1,1.87,1.1C200.8,65.11,201.91,64.29,203.13,62.67z"/>
		<path d="M254.01,68.42c-1.57,0-3.09-0.52-4.49-1.61c-0.76-0.75-1.34-1.45-1.75-2.14c-0.53-1.04-0.82-2.26-0.82-3.65l-0.04-22.14
			c0-1.68-0.36-3.07-1.11-4.05c-0.58-0.64-1.28-0.98-2.16-0.98c-0.87,0-1.69,0.35-2.39,0.99c-0.93,0.87-1.63,1.86-2.15,2.84
			l0.06,30.77l-14.33,0.03l-0.08-40.56l7.28-0.01c1.4,0,2.74,0.46,4.08,1.32c1.05,0.75,1.81,1.62,2.22,2.6
			c0.41,0.75,0.58,1.27,0.59,1.62c3.08-3.71,6.63-5.58,10.71-5.58c1.92,0,3.85,0.46,5.65,1.38c2.16,1.21,3.79,2.89,4.85,5.15
			c0.7,1.45,1.05,3.13,1.06,4.98l0.06,29.03L254.01,68.42z"/>
		<path d="M268.2,65.9c-2.63-2.54-3.92-5.67-3.92-9.32c0-1.91,0.63-3.77,1.85-5.68c2.5-3.66,6.46-5.98,11.76-6.98
			c3.73-0.93,5.88-2.62,6.52-5c0.12-0.41,0.17-1.16,0.17-2.2c0-1.62-0.47-2.9-1.41-3.76c-0.99-0.87-2.33-1.33-4.14-1.32
			c-1.22,0-2.56,0.24-4.02,0.64c1.11,0.52,1.98,1.39,2.63,2.6c0.53,0.87,0.82,1.74,0.82,2.72c0,1.56-0.58,3.01-1.68,4.29
			c-1.39,1.45-2.97,2.15-4.77,2.15c-1.46,0-2.8-0.46-3.96-1.44c-1.46-1.27-2.16-2.89-2.17-4.86c0-1.56,0.46-3.07,1.45-4.58
			c1.34-1.91,3.26-3.31,5.76-4.18c1.98-0.76,4.83-1.17,8.56-1.18c6.88-0.01,11.66,1.71,14.29,5.25c1.99,2.49,2.98,5.96,2.99,10.31
			l0.05,24.98l-7.17,0.01c-1.81,0-3.38-0.63-4.84-1.96c-0.88-0.87-1.46-1.74-1.81-2.6c-3.2,3.19-6.52,4.76-10.01,4.77
			C272.57,68.56,270.24,67.69,268.2,65.9z M282.23,62.51c1.57-2.32,2.38-5.05,2.37-8.18l-0.02-10.66c-0.52,1.16-1.86,2.44-4.07,3.89
			c-0.76,0.52-1.45,1.05-2.04,1.57c-1.74,1.63-2.61,3.89-2.61,6.84l0.01,3.71c0,1.68,0.36,3.07,1.06,4.17
			c0.53,0.75,1.11,1.1,1.87,1.1C279.9,64.95,281.01,64.14,282.23,62.51z"/>
	</g>
	<g>
		<path class="st13" d="M158.89,121.24c-1.81-0.92-3.5-2.08-5.02-3.53c-4.2-4.16-6.31-8.91-6.32-14.18
			c-0.01-3.19,0.57-6.14,1.67-8.75c1.91-4.47,5.29-7.77,10.06-9.81c2.97-1.22,6.11-1.87,9.32-1.87c4.08-0.01,7.52,0.91,10.32,2.82
			c2.39,1.68,3.62,3.82,3.63,6.54c0,1.85-0.63,3.42-1.86,4.64c-1.28,1.28-2.79,1.92-4.54,1.92c-1.69,0-3.09-0.63-4.32-1.85
			c-1.23-1.21-1.87-2.66-1.87-4.28c0-1.16,0.4-2.38,1.27-3.6c0.7-0.99,1.4-1.57,2.15-1.86c-7.63,0.94-11.41,4.83-11.4,11.61
			l0.01,3.82c0.01,4.35,0.42,7.59,1.18,9.79c1.64,4.46,5.02,6.65,10.15,6.64c2.97-0.01,5.82-1.11,8.56-3.32
			c1.92-1.68,3.55-3.72,4.77-6.09c1.69,0,2.51,0,2.51,0.05c-2.26,5.74-6.33,9.81-12.1,12.19c-2.62,0.99-5.24,1.52-7.98,1.52
			C165.54,123.66,162.16,122.86,158.89,121.24z"/>
		<path class="st13" d="M189.36,121.12c-2.63-2.54-3.92-5.67-3.92-9.32c0-1.91,0.63-3.77,1.85-5.68c2.5-3.66,6.46-5.98,11.76-6.98
			c3.73-0.93,5.88-2.62,6.52-5c0.12-0.41,0.17-1.16,0.17-2.2c0-1.62-0.47-2.9-1.41-3.76c-0.99-0.87-2.33-1.33-4.14-1.32
			c-1.22,0-2.56,0.24-4.02,0.65c1.11,0.52,1.98,1.39,2.63,2.6c0.53,0.87,0.82,1.74,0.82,2.72c0,1.56-0.58,3.01-1.68,4.29
			c-1.4,1.45-2.97,2.15-4.77,2.15c-1.46,0-2.8-0.46-3.96-1.44c-1.46-1.27-2.16-2.89-2.17-4.86c0-1.56,0.46-3.07,1.45-4.58
			c1.34-1.91,3.26-3.31,5.76-4.18c1.98-0.76,4.83-1.17,8.56-1.18c6.88-0.01,11.66,1.71,14.29,5.25c1.99,2.49,2.98,5.96,2.99,10.31
			l0.05,24.97l-7.17,0.01c-1.81,0-3.38-0.63-4.84-1.96c-0.88-0.87-1.46-1.74-1.81-2.6c-3.2,3.19-6.52,4.76-10.01,4.77
			C193.74,123.78,191.41,122.91,189.36,121.12z M203.4,117.73c1.57-2.32,2.38-5.05,2.37-8.18l-0.02-10.66
			c-0.52,1.16-1.86,2.44-4.07,3.89c-0.76,0.52-1.45,1.05-2.04,1.57c-1.74,1.63-2.61,3.89-2.61,6.84l0.01,3.71
			c0,1.68,0.36,3.07,1.06,4.17c0.53,0.75,1.11,1.1,1.87,1.1C201.07,120.17,202.18,119.36,203.4,117.73z"/>
		<path class="st13" d="M225.03,123.54l-0.08-40.56l6.99-0.01c2.21,0,4.08,0.8,5.6,2.42c2.27-2.38,5.06-3.54,8.38-3.55
			c2.62-0.01,5.07,0.86,7.35,2.53c3.03,2.37,4.56,5.44,4.56,9.2c0,1.97-0.46,3.71-1.39,5.16c-0.99,1.51-2.27,2.55-3.96,3.19
			c-0.81,0.29-1.63,0.47-2.5,0.47c-1.86,0-3.5-0.69-4.9-2.13c-1.23-1.33-1.81-2.84-1.82-4.52c0-1.91,0.69-3.65,2.09-5.22
			c1.63-1.68,3.55-2.5,5.76-2.5c-1.46-1.33-3.21-1.96-5.13-1.96c-1.92,0-3.67,0.7-5.12,2.04c-1.05,1.1-1.57,1.92-1.57,2.38
			l0.05,25.9c0,2.03-0.81,3.83-2.44,5.34c-1.45,1.22-2.97,1.8-4.6,1.81L225.03,123.54z"/>
		<path class="st13" d="M263.95,120.57c-2.57-2.37-3.86-5.27-3.86-8.63l-0.05-25.09l-4.95,0.01l-0.01-3.94l4.95-0.01
			c-0.01-2.55,0.34-4.35,0.98-5.33c1.22-2.26,4.07-3.37,8.56-3.38l4.72-0.01c0.06,0,0.06,2.9,0.08,8.69l4.89-0.01
			c0.06,0,0.06,0.64,0.06,1.97s0,1.97-0.05,1.97l-4.89,0.01l0.05,25.03c0.01,3.65,1.12,5.45,3.27,5.44c2.21,0,4.25-2.44,6.1-7.37
			c0.06-0.17,0.06-0.23,0.12-0.23l2.68-0.01c-1.97,5.74-4.7,9.69-8.25,11.72c-2.15,1.34-4.42,2.04-6.7,2.04
			C268.79,123.46,266.22,122.48,263.95,120.57z"/>
	</g>
	<path class="st14" d="M119.13,52.01c-1.42-2.49-2.94-4.81-4.6-7.02c-1.65-2.21-3.42-4.31-5.34-6.27c-1.94-1.94-3.98-3.8-6.2-5.44
		c-1.08-0.87-2.25-1.62-3.4-2.43c-1.15-0.8-2.38-1.48-3.56-2.31c1.36,0.4,2.75,0.8,4.07,1.36c1.3,0.6,2.65,1.14,3.86,1.93
		c0.61,0.37,1.26,0.72,1.85,1.12l1.75,1.28c0.6,0.41,1.14,0.9,1.68,1.38c0.54,0.49,1.1,0.95,1.6,1.48c2.11,2,3.86,4.36,5.32,6.85
		C117.58,46.44,118.72,49.15,119.13,52.01"/>
</g>
</svg>
