<svg xmlns="http://www.w3.org/2000/svg" width="250" height="50.574" viewBox="0 0 250 50.574"><defs><style>.a{fill:#f46f25;}.b{fill:#292929;}</style></defs><g transform="translate(-2732.3 2313.8)"><path class="a" d="M2766.858-2288.556v-3.569h-7.051v-.087l-10.707,5.919-10.185-5.832-.087-7.747,10.1-5.919,10.794,5.745.087,4.614h7.138l-.087-8.7-17.932-9.662-16.626,9.836.174,15.669,16.365,9.662,10.881-5.658v6.964l-10.707,6.006-9.836-6.354v-3.047l-3.395-1.915-3.482-2v10.707h0v.087h.087l16.626,10.62.087-.261.087.174,17.671-10.185Z"/><g transform="translate(2777.652 -2304.138)"><path class="b" d="M2787.969-2271.089a7.684,7.684,0,0,1-2.786-4.265,26.023,26.023,0,0,1-.783-6.964v-7.4a27.454,27.454,0,0,1,.783-7.138,7.4,7.4,0,0,1,2.786-4.265,10.116,10.116,0,0,1,5.832-1.48,10.591,10.591,0,0,1,5.4,1.132,6,6,0,0,1,2.7,3.308,17.372,17.372,0,0,1,.783,5.658v1.915h-5.4v-1.915a10.605,10.605,0,0,0-.7-4.439c-.435-.87-1.306-1.219-2.611-1.219a3.512,3.512,0,0,0-2.263.7,3.393,3.393,0,0,0-.958,2.176,26.712,26.712,0,0,0-.261,4.352v10.1a18.089,18.089,0,0,0,.348,4.265,4.672,4.672,0,0,0,1.044,2.089,3.8,3.8,0,0,0,2.176.609,2.6,2.6,0,0,0,2.7-1.393,10.03,10.03,0,0,0,.609-4.178v-2.611h5.4v2.263c0,3.482-.609,6.093-1.915,7.747-1.306,1.741-3.569,2.524-6.876,2.524A9.7,9.7,0,0,1,2787.969-2271.089Z" transform="translate(-2784.4 2302.687)"/><path class="b" d="M2812.876-2272.556c-1.393-2-2.176-4.962-2.176-8.792v-9.314c0-3.83.7-6.79,2.176-8.792,1.393-2,3.83-3.047,7.225-3.047s5.745,1.044,7.225,3.047c1.393,2,2.176,4.962,2.176,8.792v9.314c0,3.83-.7,6.79-2.176,8.792-1.393,2-3.83,3.047-7.225,3.047S2814.269-2270.554,2812.876-2272.556Zm9.575-2.263a4.047,4.047,0,0,0,.871-2.35c.087-.958.174-2.176.174-3.743v-10.1c0-1.567-.087-2.873-.174-3.83a4.745,4.745,0,0,0-.871-2.35,2.828,2.828,0,0,0-2.35-.958,2.947,2.947,0,0,0-2.35.958,4.8,4.8,0,0,0-.958,2.35c-.087.958-.174,2.176-.174,3.83v10.1c0,1.567.087,2.873.174,3.743a4.11,4.11,0,0,0,.958,2.35,2.949,2.949,0,0,0,2.35.958A2.717,2.717,0,0,0,2822.451-2274.819Z" transform="translate(-2787.807 2302.674)"/><path class="b" d="M2838.487-2302.091h5.484v3.047a10.483,10.483,0,0,1,3.569-2.7,9.332,9.332,0,0,1,4-.958c2.7,0,4.439,1.393,5.223,4.091,2.263-2.7,4.875-4.091,8.008-4.091a5.171,5.171,0,0,1,4.091,1.828,8.5,8.5,0,0,1,1.567,5.571v25.244h-5.484v-24.808a5.029,5.029,0,0,0-.7-3.047,2.469,2.469,0,0,0-2.089-.871,5.822,5.822,0,0,0-2.524.7,8.468,8.468,0,0,0-2.437,1.915v26.2h-5.484v-24.809a5.032,5.032,0,0,0-.7-3.047,2.471,2.471,0,0,0-2.089-.87,5.822,5.822,0,0,0-2.524.7,10.184,10.184,0,0,0-2.524,1.915v26.2H2838.4v-32.208Z" transform="translate(-2791.395 2302.7)"/><path class="b" d="M2881.887-2302.091h5.484v3.047a10.482,10.482,0,0,1,3.569-2.7,9.334,9.334,0,0,1,4-.958c2.7,0,4.439,1.393,5.223,4.091,2.264-2.7,4.875-4.091,8.008-4.091a5.171,5.171,0,0,1,4.091,1.828,8.505,8.505,0,0,1,1.567,5.571v25.244h-5.484v-24.808a5.031,5.031,0,0,0-.7-3.047,2.47,2.47,0,0,0-2.089-.871,5.819,5.819,0,0,0-2.524.7,8.465,8.465,0,0,0-2.437,1.915v26.2h-5.484v-24.809a5.027,5.027,0,0,0-.7-3.047,2.47,2.47,0,0,0-2.089-.87,5.822,5.822,0,0,0-2.524.7,10.189,10.189,0,0,0-2.524,1.915v26.2H2881.8v-32.208Z" transform="translate(-2797.016 2302.7)"/><path class="b" d="M2928.343-2270.889a7.3,7.3,0,0,1-2.873-4.178,26.814,26.814,0,0,1-.87-7.225v-7.312c0-4.439.7-7.66,2.089-9.749s3.83-3.047,7.4-3.047c2.611,0,4.526.522,5.832,1.654a7.863,7.863,0,0,1,2.612,4.526,37.466,37.466,0,0,1,.609,7.834v2.611h-12.709v6.442a7.614,7.614,0,0,0,.871,4.265,3.1,3.1,0,0,0,2.786,1.306,2.577,2.577,0,0,0,2.524-1.306,9.17,9.17,0,0,0,.7-4v-1.915h5.745v1.219c0,3.395-.7,5.919-2.176,7.747-1.479,1.741-3.743,2.7-6.876,2.7A11.467,11.467,0,0,1,2928.343-2270.889Zm9.053-18.193v-2.873a12.418,12.418,0,0,0-.609-4.7,2.6,2.6,0,0,0-2.7-1.393,3.257,3.257,0,0,0-2.176.7,3.661,3.661,0,0,0-1.044,2.176,28.712,28.712,0,0,0-.261,4.44v1.741h6.79Z" transform="translate(-2802.56 2302.661)"/><path class="b" d="M2952.387-2302.065h5.919v4.526a11.6,11.6,0,0,1,3.4-3.83,6.447,6.447,0,0,1,3.656-1.132,3.566,3.566,0,0,1,.958.087v6.529a9.8,9.8,0,0,0-3.308-.7,5.316,5.316,0,0,0-2.611.7,6.752,6.752,0,0,0-2.176,2.437v23.416H2952.3v-32.033Z" transform="translate(-2806.148 2302.674)"/><path class="b" d="M2975.569-2271.089a7.687,7.687,0,0,1-2.786-4.265,26.033,26.033,0,0,1-.783-6.964v-7.4a27.454,27.454,0,0,1,.783-7.138,7.4,7.4,0,0,1,2.786-4.265,10.117,10.117,0,0,1,5.832-1.48,10.589,10.589,0,0,1,5.4,1.132,6,6,0,0,1,2.7,3.308,17.372,17.372,0,0,1,.783,5.658v1.915h-5.4v-1.915a10.61,10.61,0,0,0-.7-4.439c-.435-.87-1.306-1.219-2.611-1.219a3.512,3.512,0,0,0-2.263.7,3.393,3.393,0,0,0-.958,2.176,26.74,26.74,0,0,0-.261,4.352v10.1a18.1,18.1,0,0,0,.348,4.265,4.673,4.673,0,0,0,1.045,2.089,3.8,3.8,0,0,0,2.176.609,2.6,2.6,0,0,0,2.7-1.393,10.034,10.034,0,0,0,.609-4.178v-2.611h5.4v2.263c0,3.482-.609,6.093-1.915,7.747-1.306,1.741-3.569,2.524-6.877,2.524A9.7,9.7,0,0,1,2975.569-2271.089Z" transform="translate(-2808.699 2302.687)"/><path class="b" d="M3001.943-2270.889a7.3,7.3,0,0,1-2.873-4.178,26.814,26.814,0,0,1-.87-7.225v-7.312c0-4.439.7-7.66,2.089-9.749s3.83-3.047,7.4-3.047c2.611,0,4.526.522,5.832,1.654a7.863,7.863,0,0,1,2.612,4.526,37.466,37.466,0,0,1,.609,7.834v2.611h-12.709v6.442a7.614,7.614,0,0,0,.871,4.265,3.1,3.1,0,0,0,2.786,1.306,2.577,2.577,0,0,0,2.524-1.306,9.17,9.17,0,0,0,.7-4v-1.915h5.745v1.219c0,3.395-.7,5.919-2.176,7.747-1.479,1.741-3.743,2.7-6.876,2.7A11.467,11.467,0,0,1,3001.943-2270.889Zm9.053-18.193v-2.873a12.428,12.428,0,0,0-.609-4.7,2.6,2.6,0,0,0-2.7-1.393,3.258,3.258,0,0,0-2.176.7,3.667,3.667,0,0,0-1.044,2.176,28.774,28.774,0,0,0-.261,4.44v1.741H3011Z" transform="translate(-2812.093 2302.661)"/></g></g></svg>